<?xml version="1.0" encoding="UTF-8" standalone="no"?>
<!DOCTYPE svg PUBLIC "-//W3C//DTD SVG 1.1//EN"
 "http://www.w3.org/Graphics/SVG/1.1/DTD/svg11.dtd">
<!-- Generated by graphviz version 9.0.0 (20230911.1827)
 -->
<!-- Title: G Pages: 1 -->
<svg width="1303pt" height="932pt"
 viewBox="0.00 0.00 1303.00 932.00" xmlns="http://www.w3.org/2000/svg" xmlns:xlink="http://www.w3.org/1999/xlink">
<g id="graph0" class="graph" transform="scale(1 1) rotate(0) translate(4 928)">
<title>G</title>
<polygon fill="white" stroke="none" points="-4,4 -4,-928 1299,-928 1299,4 -4,4"/>
<text text-anchor="middle" x="647.5" y="-6.35" font-family="Verdana" font-size="7.00" fill="#000000" fill-opacity="0.498039">Generated by Python Call Graph v1.1.3</text>
<g id="clust1" class="cluster">
<title>cluster___main__</title>
<polygon fill="none" stroke="#000000" stroke-width="2" stroke-opacity="0.800000" points="839,-844 839,-916 937,-916 937,-844 839,-844"/>
<text text-anchor="middle" x="888" y="-902.5" font-family="Verdana" font-size="10.00">__main__</text>
</g>
<g id="clust2" class="cluster">
<title>cluster_&lt;module&gt;</title>
<polygon fill="none" stroke="#000000" stroke-width="2" stroke-opacity="0.800000" points="834,-745 834,-817 942,-817 942,-745 834,-745"/>
<text text-anchor="middle" x="888" y="-803.5" font-family="Verdana" font-size="10.00">&lt;module&gt;</text>
</g>
<g id="clust3" class="cluster">
<title>cluster_therm</title>
<polygon fill="none" stroke="#000000" stroke-width="2" stroke-opacity="0.800000" points="527,-448 527,-619 1175,-619 1175,-448 527,-448"/>
<text text-anchor="middle" x="851" y="-605.5" font-family="Verdana" font-size="10.00">therm</text>
</g>
<g id="clust4" class="cluster">
<title>cluster_corner</title>
<polygon fill="none" stroke="#000000" stroke-width="2" stroke-opacity="0.800000" points="8,-349 8,-520 309,-520 309,-349 8,-349"/>
<text text-anchor="middle" x="158.5" y="-506.5" font-family="Verdana" font-size="10.00">corner</text>
</g>
<g id="clust5" class="cluster">
<title>cluster_num</title>
<polygon fill="none" stroke="#000000" stroke-width="2" stroke-opacity="0.800000" points="1090,-349 1090,-421 1287,-421 1287,-349 1090,-349"/>
<text text-anchor="middle" x="1188.5" y="-407.5" font-family="Verdana" font-size="10.00">num</text>
</g>
<g id="clust6" class="cluster">
<title>cluster_umf</title>
<polygon fill="none" stroke="#000000" stroke-width="2" stroke-opacity="0.800000" points="317,-448 317,-520 519,-520 519,-448 317,-448"/>
<text text-anchor="middle" x="418" y="-506.5" font-family="Verdana" font-size="10.00">umf</text>
</g>
<g id="clust7" class="cluster">
<title>cluster_nasa7</title>
<polygon fill="none" stroke="#000000" stroke-width="2" stroke-opacity="0.800000" points="317,-25 317,-421 1082,-421 1082,-25 317,-25"/>
<text text-anchor="middle" x="699.5" y="-407.5" font-family="Verdana" font-size="10.00">nasa7</text>
</g>
<g id="clust8" class="cluster">
<title>cluster_periodic</title>
<polygon fill="none" stroke="#000000" stroke-width="2" stroke-opacity="0.800000" points="1065,-844 1065,-916 1167,-916 1167,-844 1065,-844"/>
<text text-anchor="middle" x="1116" y="-902.5" font-family="Verdana" font-size="10.00">periodic</text>
</g>
<g id="clust9" class="cluster">
<title>cluster_main</title>
<polygon fill="none" stroke="#000000" stroke-width="2" stroke-opacity="0.800000" points="834,-646 834,-718 942,-718 942,-646 834,-646"/>
<text text-anchor="middle" x="888" y="-704.5" font-family="Verdana" font-size="10.00">main</text>
</g>
<!-- __main__ -->
<g id="node1" class="node">
<title>__main__</title>
<polygon fill="#e5e5e5" stroke="#e5e5e5" points="928.63,-888 847.38,-888 847.38,-852 928.63,-852 928.63,-888"/>
<text text-anchor="middle" x="888" y="-876.85" font-family="Verdana" font-size="7.00" fill="#000000">__main__</text>
<text text-anchor="middle" x="888" y="-867.85" font-family="Verdana" font-size="7.00" fill="#000000">calls: 1</text>
<text text-anchor="middle" x="888" y="-858.85" font-family="Verdana" font-size="7.00" fill="#000000">time: 0.000000s</text>
</g>
<!-- &lt;module&gt; -->
<g id="node2" class="node">
<title>&lt;module&gt;</title>
<polygon fill="#e54ce5" stroke="#e54ce5" points="933.88,-789 842.13,-789 842.13,-753 933.88,-753 933.88,-789"/>
<text text-anchor="middle" x="888" y="-777.85" font-family="Verdana" font-size="7.00" fill="#000000">&lt;module&gt;</text>
<text text-anchor="middle" x="888" y="-768.85" font-family="Verdana" font-size="7.00" fill="#000000">calls: 1</text>
<text text-anchor="middle" x="888" y="-759.85" font-family="Verdana" font-size="7.00" fill="#000000">time: 102.148413s</text>
</g>
<!-- __main__&#45;&gt;&lt;module&gt; -->
<g id="edge1" class="edge">
<title>__main__&#45;&gt;&lt;module&gt;</title>
<path fill="none" stroke="#b23bb2" d="M888,-851.66C888,-837.45 888,-817.06 888,-800.46"/>
<polygon fill="#b23bb2" stroke="#b23bb2" points="891.5,-800.71 888,-790.71 884.5,-800.71 891.5,-800.71"/>
<text text-anchor="middle" x="890.63" y="-827.35" font-family="Verdana" font-size="7.00" fill="#000000">1</text>
</g>
<!-- main -->
<g id="node41" class="node">
<title>main</title>
<polygon fill="#e34de5" stroke="#e34de5" points="933.88,-690 842.13,-690 842.13,-654 933.88,-654 933.88,-690"/>
<text text-anchor="middle" x="888" y="-678.85" font-family="Verdana" font-size="7.00" fill="#000000">main</text>
<text text-anchor="middle" x="888" y="-669.85" font-family="Verdana" font-size="7.00" fill="#000000">calls: 1</text>
<text text-anchor="middle" x="888" y="-660.85" font-family="Verdana" font-size="7.00" fill="#000000">time: 101.568412s</text>
</g>
<!-- &lt;module&gt;&#45;&gt;main -->
<g id="edge13" class="edge">
<title>&lt;module&gt;&#45;&gt;main</title>
<path fill="none" stroke="#b13cb2" d="M888,-752.66C888,-738.45 888,-718.06 888,-701.46"/>
<polygon fill="#b13cb2" stroke="#b13cb2" points="891.5,-701.71 888,-691.71 884.5,-701.71 891.5,-701.71"/>
<text text-anchor="middle" x="890.63" y="-728.35" font-family="Verdana" font-size="7.00" fill="#000000">1</text>
</g>
<!-- therm.&lt;module&gt; -->
<g id="node3" class="node">
<title>therm.&lt;module&gt;</title>
<polygon fill="#e4e5e5" stroke="#e4e5e5" points="1166.63,-591 1085.38,-591 1085.38,-555 1166.63,-555 1166.63,-591"/>
<text text-anchor="middle" x="1126" y="-579.85" font-family="Verdana" font-size="7.00" fill="#000000">therm.&lt;module&gt;</text>
<text text-anchor="middle" x="1126" y="-570.85" font-family="Verdana" font-size="7.00" fill="#000000">calls: 1</text>
<text text-anchor="middle" x="1126" y="-561.85" font-family="Verdana" font-size="7.00" fill="#000000">time: 0.540001s</text>
</g>
<!-- therm.Ingredient -->
<g id="node4" class="node">
<title>therm.Ingredient</title>
<polygon fill="#e5e5e5" stroke="#e5e5e5" points="1166.63,-492 1085.38,-492 1085.38,-456 1166.63,-456 1166.63,-492"/>
<text text-anchor="middle" x="1126" y="-480.85" font-family="Verdana" font-size="7.00" fill="#000000">therm.Ingredient</text>
<text text-anchor="middle" x="1126" y="-471.85" font-family="Verdana" font-size="7.00" fill="#000000">calls: 1</text>
<text text-anchor="middle" x="1126" y="-462.85" font-family="Verdana" font-size="7.00" fill="#000000">time: 0.000000s</text>
</g>
<!-- therm.&lt;module&gt;&#45;&gt;therm.Ingredient -->
<g id="edge11" class="edge">
<title>therm.&lt;module&gt;&#45;&gt;therm.Ingredient</title>
<path fill="none" stroke="#b2b2b2" d="M1126,-554.66C1126,-540.45 1126,-520.06 1126,-503.46"/>
<polygon fill="#b2b2b2" stroke="#b2b2b2" points="1129.5,-503.71 1126,-493.71 1122.5,-503.71 1129.5,-503.71"/>
<text text-anchor="middle" x="1128.63" y="-530.35" font-family="Verdana" font-size="7.00" fill="#000000">1</text>
</g>
<!-- therm.Mixture -->
<g id="node5" class="node">
<title>therm.Mixture</title>
<polygon fill="#e5e5e5" stroke="#e5e5e5" points="938.63,-492 857.38,-492 857.38,-456 938.63,-456 938.63,-492"/>
<text text-anchor="middle" x="898" y="-480.85" font-family="Verdana" font-size="7.00" fill="#000000">therm.Mixture</text>
<text text-anchor="middle" x="898" y="-471.85" font-family="Verdana" font-size="7.00" fill="#000000">calls: 1</text>
<text text-anchor="middle" x="898" y="-462.85" font-family="Verdana" font-size="7.00" fill="#000000">time: 0.000000s</text>
</g>
<!-- therm.&lt;module&gt;&#45;&gt;therm.Mixture -->
<g id="edge12" class="edge">
<title>therm.&lt;module&gt;&#45;&gt;therm.Mixture</title>
<path fill="none" stroke="#b2b2b2" d="M1084.9,-557.5C1082.23,-556.64 1079.58,-555.79 1077,-555 1019.81,-537.4 999.43,-548.84 947,-520 937.49,-514.77 928.35,-507.31 920.6,-499.97"/>
<polygon fill="#b2b2b2" stroke="#b2b2b2" points="923.4,-497.82 913.86,-493.23 918.46,-502.77 923.4,-497.82"/>
<text text-anchor="middle" x="989.63" y="-530.35" font-family="Verdana" font-size="7.00" fill="#000000">1</text>
</g>
<!-- therm.readFile -->
<g id="node6" class="node">
<title>therm.readFile</title>
<polygon fill="#e5e5e5" stroke="#e5e5e5" points="720.63,-591 639.38,-591 639.38,-555 720.63,-555 720.63,-591"/>
<text text-anchor="middle" x="680" y="-579.85" font-family="Verdana" font-size="7.00" fill="#000000">therm.readFile</text>
<text text-anchor="middle" x="680" y="-570.85" font-family="Verdana" font-size="7.00" fill="#000000">calls: 1</text>
<text text-anchor="middle" x="680" y="-561.85" font-family="Verdana" font-size="7.00" fill="#000000">time: 0.331001s</text>
</g>
<!-- therm.Ingredient.__init__ -->
<g id="node7" class="node">
<title>therm.Ingredient.__init__</title>
<polygon fill="#e5e5e5" stroke="#e5e5e5" points="1067.63,-492 956.38,-492 956.38,-456 1067.63,-456 1067.63,-492"/>
<text text-anchor="middle" x="1012" y="-480.85" font-family="Verdana" font-size="7.00" fill="#000000">therm.Ingredient.__init__</text>
<text text-anchor="middle" x="1012" y="-471.85" font-family="Verdana" font-size="7.00" fill="#000000">calls: 1,091</text>
<text text-anchor="middle" x="1012" y="-462.85" font-family="Verdana" font-size="7.00" fill="#000000">time: 0.075000s</text>
</g>
<!-- therm.readFile&#45;&gt;therm.Ingredient.__init__ -->
<g id="edge19" class="edge">
<title>therm.readFile&#45;&gt;therm.Ingredient.__init__</title>
<path fill="none" stroke="#b2b2b2" d="M697.43,-554.54C708.37,-544.79 723.34,-533.53 739,-528 782.83,-512.52 903.96,-534.86 948,-520 961.14,-515.57 973.98,-507.51 984.66,-499.43"/>
<polygon fill="#b2b2b2" stroke="#b2b2b2" points="986.64,-502.33 992.27,-493.35 982.27,-496.86 986.64,-502.33"/>
<text text-anchor="middle" x="749.5" y="-530.35" font-family="Verdana" font-size="7.00" fill="#000000">1086</text>
</g>
<!-- therm.getLine -->
<g id="node8" class="node">
<title>therm.getLine</title>
<polygon fill="#e5e5e5" stroke="#e5e5e5" points="819.63,-591 738.38,-591 738.38,-555 819.63,-555 819.63,-591"/>
<text text-anchor="middle" x="779" y="-579.85" font-family="Verdana" font-size="7.00" fill="#000000">therm.getLine</text>
<text text-anchor="middle" x="779" y="-570.85" font-family="Verdana" font-size="7.00" fill="#000000">calls: 5</text>
<text text-anchor="middle" x="779" y="-561.85" font-family="Verdana" font-size="7.00" fill="#000000">time: 0.000000s</text>
</g>
<!-- therm.Mixture.__init__ -->
<g id="node9" class="node">
<title>therm.Mixture.__init__</title>
<polygon fill="#e24de5" stroke="#e24de5" points="938.38,-591 837.63,-591 837.63,-555 938.38,-555 938.38,-591"/>
<text text-anchor="middle" x="888" y="-579.85" font-family="Verdana" font-size="7.00" fill="#000000">therm.Mixture.__init__</text>
<text text-anchor="middle" x="888" y="-570.85" font-family="Verdana" font-size="7.00" fill="#000000">calls: 5</text>
<text text-anchor="middle" x="888" y="-561.85" font-family="Verdana" font-size="7.00" fill="#000000">time: 101.237411s</text>
</g>
<!-- therm.&lt;dictcomp&gt; -->
<g id="node10" class="node">
<title>therm.&lt;dictcomp&gt;</title>
<polygon fill="#e5e5e5" stroke="#e5e5e5" points="738.5,-492 653.5,-492 653.5,-456 738.5,-456 738.5,-492"/>
<text text-anchor="middle" x="696" y="-480.85" font-family="Verdana" font-size="7.00" fill="#000000">therm.&lt;dictcomp&gt;</text>
<text text-anchor="middle" x="696" y="-471.85" font-family="Verdana" font-size="7.00" fill="#000000">calls: 5</text>
<text text-anchor="middle" x="696" y="-462.85" font-family="Verdana" font-size="7.00" fill="#000000">time: 0.000000s</text>
</g>
<!-- therm.Mixture.__init__&#45;&gt;therm.&lt;dictcomp&gt; -->
<g id="edge20" class="edge">
<title>therm.Mixture.__init__&#45;&gt;therm.&lt;dictcomp&gt;</title>
<path fill="none" stroke="#b2b2b2" d="M837.44,-555.34C804.02,-543.93 763.62,-529.25 748,-520 738.49,-514.37 729.07,-506.93 720.9,-499.73"/>
<polygon fill="#b2b2b2" stroke="#b2b2b2" points="723.44,-497.31 713.71,-493.12 718.71,-502.47 723.44,-497.31"/>
<text text-anchor="middle" x="785.63" y="-530.35" font-family="Verdana" font-size="7.00" fill="#000000">5</text>
</g>
<!-- corner.balance -->
<g id="node15" class="node">
<title>corner.balance</title>
<polygon fill="#e24de5" stroke="#e24de5" points="200.88,-492 109.13,-492 109.13,-456 200.88,-456 200.88,-492"/>
<text text-anchor="middle" x="155" y="-480.85" font-family="Verdana" font-size="7.00" fill="#000000">corner.balance</text>
<text text-anchor="middle" x="155" y="-471.85" font-family="Verdana" font-size="7.00" fill="#000000">calls: 45</text>
<text text-anchor="middle" x="155" y="-462.85" font-family="Verdana" font-size="7.00" fill="#000000">time: 101.236411s</text>
</g>
<!-- therm.Mixture.__init__&#45;&gt;corner.balance -->
<g id="edge22" class="edge">
<title>therm.Mixture.__init__&#45;&gt;corner.balance</title>
<path fill="none" stroke="#b03cb2" d="M837.31,-556.65C834.51,-556.04 831.73,-555.48 829,-555 712.08,-534.45 680.83,-546.57 562.5,-537 520.01,-533.56 509.55,-530.66 467,-528 438.49,-526.21 236.75,-530.02 210,-520 198.56,-515.72 187.75,-508.01 178.78,-500.18"/>
<polygon fill="#b03cb2" stroke="#b03cb2" points="181.28,-497.73 171.58,-493.46 176.5,-502.84 181.28,-497.73"/>
<text text-anchor="middle" x="567.25" y="-530.35" font-family="Verdana" font-size="7.00" fill="#000000">15</text>
</g>
<!-- umf.secant -->
<g id="node22" class="node">
<title>umf.secant</title>
<polygon fill="#9f82e5" stroke="#9f82e5" points="411.25,-492 324.75,-492 324.75,-456 411.25,-456 411.25,-492"/>
<text text-anchor="middle" x="368" y="-480.85" font-family="Verdana" font-size="7.00" fill="#000000">umf.secant</text>
<text text-anchor="middle" x="368" y="-471.85" font-family="Verdana" font-size="7.00" fill="#000000">calls: 5</text>
<text text-anchor="middle" x="368" y="-462.85" font-family="Verdana" font-size="7.00" fill="#000000">time: 66.074271s</text>
</g>
<!-- therm.Mixture.__init__&#45;&gt;umf.secant -->
<g id="edge21" class="edge">
<title>therm.Mixture.__init__&#45;&gt;umf.secant</title>
<path fill="none" stroke="#7c65b2" d="M837.29,-556.78C834.5,-556.13 831.72,-555.53 829,-555 718.46,-533.32 689.29,-536.87 577,-528 542.17,-525.25 452.41,-533.03 420,-520 409.15,-515.64 398.99,-508.02 390.58,-500.29"/>
<polygon fill="#7c65b2" stroke="#7c65b2" points="393.14,-497.9 383.57,-493.37 388.23,-502.89 393.14,-497.9"/>
<text text-anchor="middle" x="705.63" y="-530.35" font-family="Verdana" font-size="7.00" fill="#000000">5</text>
</g>
<!-- therm.Mixture.f -->
<g id="node11" class="node">
<title>therm.Mixture.f</title>
<polygon fill="#9f82e5" stroke="#9f82e5" points="621.25,-591 534.75,-591 534.75,-555 621.25,-555 621.25,-591"/>
<text text-anchor="middle" x="578" y="-579.85" font-family="Verdana" font-size="7.00" fill="#000000">therm.Mixture.f</text>
<text text-anchor="middle" x="578" y="-570.85" font-family="Verdana" font-size="7.00" fill="#000000">calls: 30</text>
<text text-anchor="middle" x="578" y="-561.85" font-family="Verdana" font-size="7.00" fill="#000000">time: 66.074271s</text>
</g>
<!-- therm.Mixture.f&#45;&gt;corner.balance -->
<g id="edge24" class="edge">
<title>therm.Mixture.f&#45;&gt;corner.balance</title>
<path fill="none" stroke="#b03cb2" d="M534.44,-568.8C450.04,-562.12 267.47,-545.19 210,-520 198.98,-515.17 188.38,-507.49 179.47,-499.84"/>
<polygon fill="#b03cb2" stroke="#b03cb2" points="182.05,-497.45 172.3,-493.31 177.34,-502.63 182.05,-497.45"/>
<text text-anchor="middle" x="273.25" y="-530.35" font-family="Verdana" font-size="7.00" fill="#000000">30</text>
</g>
<!-- therm.Mixture.prettyPrint -->
<g id="node12" class="node">
<title>therm.Mixture.prettyPrint</title>
<polygon fill="#e5e5e5" stroke="#e5e5e5" points="1067.63,-591 956.38,-591 956.38,-555 1067.63,-555 1067.63,-591"/>
<text text-anchor="middle" x="1012" y="-579.85" font-family="Verdana" font-size="7.00" fill="#000000">therm.Mixture.prettyPrint</text>
<text text-anchor="middle" x="1012" y="-570.85" font-family="Verdana" font-size="7.00" fill="#000000">calls: 5</text>
<text text-anchor="middle" x="1012" y="-561.85" font-family="Verdana" font-size="7.00" fill="#000000">time: 0.000000s</text>
</g>
<!-- therm.&lt;listcomp&gt; -->
<g id="node13" class="node">
<title>therm.&lt;listcomp&gt;</title>
<polygon fill="#e5e5e5" stroke="#e5e5e5" points="839.38,-492 756.63,-492 756.63,-456 839.38,-456 839.38,-492"/>
<text text-anchor="middle" x="798" y="-480.85" font-family="Verdana" font-size="7.00" fill="#000000">therm.&lt;listcomp&gt;</text>
<text text-anchor="middle" x="798" y="-471.85" font-family="Verdana" font-size="7.00" fill="#000000">calls: 5</text>
<text text-anchor="middle" x="798" y="-462.85" font-family="Verdana" font-size="7.00" fill="#000000">time: 0.000000s</text>
</g>
<!-- therm.Mixture.prettyPrint&#45;&gt;therm.&lt;listcomp&gt; -->
<g id="edge39" class="edge">
<title>therm.Mixture.prettyPrint&#45;&gt;therm.&lt;listcomp&gt;</title>
<path fill="none" stroke="#b2b2b2" d="M956.01,-556.98C916.22,-545.8 866.66,-530.68 848,-520 838.72,-514.69 829.69,-507.42 821.9,-500.28"/>
<polygon fill="#b2b2b2" stroke="#b2b2b2" points="824.42,-497.84 814.8,-493.42 819.57,-502.88 824.42,-497.84"/>
<text text-anchor="middle" x="891.63" y="-530.35" font-family="Verdana" font-size="7.00" fill="#000000">5</text>
</g>
<!-- corner.&lt;module&gt; -->
<g id="node14" class="node">
<title>corner.&lt;module&gt;</title>
<polygon fill="#e4e5e5" stroke="#e4e5e5" points="300.63,-492 219.38,-492 219.38,-456 300.63,-456 300.63,-492"/>
<text text-anchor="middle" x="260" y="-480.85" font-family="Verdana" font-size="7.00" fill="#000000">corner.&lt;module&gt;</text>
<text text-anchor="middle" x="260" y="-471.85" font-family="Verdana" font-size="7.00" fill="#000000">calls: 1</text>
<text text-anchor="middle" x="260" y="-462.85" font-family="Verdana" font-size="7.00" fill="#000000">time: 0.540001s</text>
</g>
<!-- nasa7.read -->
<g id="node26" class="node">
<title>nasa7.read</title>
<polygon fill="#e4e5e5" stroke="#e4e5e5" points="534.63,-393 453.38,-393 453.38,-357 534.63,-357 534.63,-393"/>
<text text-anchor="middle" x="494" y="-381.85" font-family="Verdana" font-size="7.00" fill="#000000">nasa7.read</text>
<text text-anchor="middle" x="494" y="-372.85" font-family="Verdana" font-size="7.00" fill="#000000">calls: 1</text>
<text text-anchor="middle" x="494" y="-363.85" font-family="Verdana" font-size="7.00" fill="#000000">time: 0.480001s</text>
</g>
<!-- corner.&lt;module&gt;&#45;&gt;nasa7.read -->
<g id="edge4" class="edge">
<title>corner.&lt;module&gt;&#45;&gt;nasa7.read</title>
<path fill="none" stroke="#b1b2b2" d="M292.39,-455.51C299.04,-452.55 306.12,-449.84 313,-448 364.69,-434.14 384.54,-460.71 433,-438 450,-430.03 464.87,-415.18 475.67,-402.01"/>
<polygon fill="#b1b2b2" stroke="#b1b2b2" points="478.17,-404.51 481.55,-394.47 472.65,-400.21 478.17,-404.51"/>
<text text-anchor="middle" x="449.63" y="-431.35" font-family="Verdana" font-size="7.00" fill="#000000">1</text>
</g>
<!-- nasa7.get -->
<g id="node29" class="node">
<title>nasa7.get</title>
<polygon fill="#e5e5e5" stroke="#e5e5e5" points="633.63,-393 552.38,-393 552.38,-357 633.63,-357 633.63,-393"/>
<text text-anchor="middle" x="593" y="-381.85" font-family="Verdana" font-size="7.00" fill="#000000">nasa7.get</text>
<text text-anchor="middle" x="593" y="-372.85" font-family="Verdana" font-size="7.00" fill="#000000">calls: 13</text>
<text text-anchor="middle" x="593" y="-363.85" font-family="Verdana" font-size="7.00" fill="#000000">time: 0.010000s</text>
</g>
<!-- corner.&lt;module&gt;&#45;&gt;nasa7.get -->
<g id="edge5" class="edge">
<title>corner.&lt;module&gt;&#45;&gt;nasa7.get</title>
<path fill="none" stroke="#b2b2b2" d="M292.08,-455.56C298.82,-452.56 306.01,-449.82 313,-448 413.02,-421.9 451.7,-467.52 544,-421 553.85,-416.04 563.16,-408.52 570.98,-401.04"/>
<polygon fill="#b2b2b2" stroke="#b2b2b2" points="573.24,-403.73 577.76,-394.14 568.25,-398.82 573.24,-403.73"/>
<text text-anchor="middle" x="527.25" y="-431.35" font-family="Verdana" font-size="7.00" fill="#000000">13</text>
</g>
<!-- nasa7.Reaction.__init__ -->
<g id="node30" class="node">
<title>nasa7.Reaction.__init__</title>
<polygon fill="#e5e5e5" stroke="#e5e5e5" points="775.38,-393 668.63,-393 668.63,-357 775.38,-357 775.38,-393"/>
<text text-anchor="middle" x="722" y="-381.85" font-family="Verdana" font-size="7.00" fill="#000000">nasa7.Reaction.__init__</text>
<text text-anchor="middle" x="722" y="-372.85" font-family="Verdana" font-size="7.00" fill="#000000">calls: 9</text>
<text text-anchor="middle" x="722" y="-363.85" font-family="Verdana" font-size="7.00" fill="#000000">time: 0.010000s</text>
</g>
<!-- corner.&lt;module&gt;&#45;&gt;nasa7.Reaction.__init__ -->
<g id="edge6" class="edge">
<title>corner.&lt;module&gt;&#45;&gt;nasa7.Reaction.__init__</title>
<path fill="none" stroke="#b2b2b2" d="M291.76,-455.55C298.59,-452.51 305.89,-449.76 313,-448 361.37,-436.03 487.43,-443.06 537,-438 584.47,-433.15 597.99,-436.84 643,-421 658.19,-415.66 673.81,-407.43 687.12,-399.46"/>
<polygon fill="#b2b2b2" stroke="#b2b2b2" points="688.85,-402.51 695.51,-394.27 685.16,-396.55 688.85,-402.51"/>
<text text-anchor="middle" x="617.63" y="-431.35" font-family="Verdana" font-size="7.00" fill="#000000">9</text>
</g>
<!-- corner.&lt;genexpr&gt; -->
<g id="node16" class="node">
<title>corner.&lt;genexpr&gt;</title>
<polygon fill="#d4e1e5" stroke="#d4e1e5" points="98.38,-393 15.63,-393 15.63,-357 98.38,-357 98.38,-393"/>
<text text-anchor="middle" x="57" y="-381.85" font-family="Verdana" font-size="7.00" fill="#000000">corner.&lt;genexpr&gt;</text>
<text text-anchor="middle" x="57" y="-372.85" font-family="Verdana" font-size="7.00" fill="#000000">calls: 55,576</text>
<text text-anchor="middle" x="57" y="-363.85" font-family="Verdana" font-size="7.00" fill="#000000">time: 0.484001s</text>
</g>
<!-- corner.balance&#45;&gt;corner.&lt;genexpr&gt; -->
<g id="edge25" class="edge">
<title>corner.balance&#45;&gt;corner.&lt;genexpr&gt;</title>
<path fill="none" stroke="#a5afb2" d="M137.48,-455.66C122.15,-440.49 99.69,-418.26 82.39,-401.13"/>
<polygon fill="#a5afb2" stroke="#a5afb2" points="85.01,-398.8 75.44,-394.26 80.09,-403.78 85.01,-398.8"/>
<text text-anchor="middle" x="130.13" y="-431.35" font-family="Verdana" font-size="7.00" fill="#000000">55576</text>
</g>
<!-- corner.&lt;listcomp&gt; -->
<g id="node17" class="node">
<title>corner.&lt;listcomp&gt;</title>
<polygon fill="#e5e5e5" stroke="#e5e5e5" points="201.5,-393 116.5,-393 116.5,-357 201.5,-357 201.5,-393"/>
<text text-anchor="middle" x="159" y="-381.85" font-family="Verdana" font-size="7.00" fill="#000000">corner.&lt;listcomp&gt;</text>
<text text-anchor="middle" x="159" y="-372.85" font-family="Verdana" font-size="7.00" fill="#000000">calls: 180</text>
<text text-anchor="middle" x="159" y="-363.85" font-family="Verdana" font-size="7.00" fill="#000000">time: 0.000000s</text>
</g>
<!-- corner.balance&#45;&gt;corner.&lt;listcomp&gt; -->
<g id="edge26" class="edge">
<title>corner.balance&#45;&gt;corner.&lt;listcomp&gt;</title>
<path fill="none" stroke="#b2b2b2" d="M155.72,-455.66C156.3,-441.45 157.14,-421.06 157.83,-404.46"/>
<polygon fill="#b2b2b2" stroke="#b2b2b2" points="161.31,-404.84 158.23,-394.7 154.32,-404.55 161.31,-404.84"/>
<text text-anchor="middle" x="163.88" y="-431.35" font-family="Verdana" font-size="7.00" fill="#000000">180</text>
</g>
<!-- corner.&lt;lambda&gt; -->
<g id="node18" class="node">
<title>corner.&lt;lambda&gt;</title>
<polygon fill="#e5e5e5" stroke="#e5e5e5" points="300.63,-393 219.38,-393 219.38,-357 300.63,-357 300.63,-393"/>
<text text-anchor="middle" x="260" y="-381.85" font-family="Verdana" font-size="7.00" fill="#000000">corner.&lt;lambda&gt;</text>
<text text-anchor="middle" x="260" y="-372.85" font-family="Verdana" font-size="7.00" fill="#000000">calls: 585</text>
<text text-anchor="middle" x="260" y="-363.85" font-family="Verdana" font-size="7.00" fill="#000000">time: 0.000000s</text>
</g>
<!-- corner.balance&#45;&gt;corner.&lt;lambda&gt; -->
<g id="edge29" class="edge">
<title>corner.balance&#45;&gt;corner.&lt;lambda&gt;</title>
<path fill="none" stroke="#b2b2b2" d="M173.77,-455.66C190.27,-440.42 214.48,-418.05 233.05,-400.9"/>
<polygon fill="#b2b2b2" stroke="#b2b2b2" points="235.31,-403.58 240.28,-394.22 230.56,-398.43 235.31,-403.58"/>
<text text-anchor="middle" x="208.88" y="-431.35" font-family="Verdana" font-size="7.00" fill="#000000">585</text>
</g>
<!-- num.quadratic -->
<g id="node20" class="node">
<title>num.quadratic</title>
<polygon fill="#e5e5e5" stroke="#e5e5e5" points="1179.63,-393 1098.38,-393 1098.38,-357 1179.63,-357 1179.63,-393"/>
<text text-anchor="middle" x="1139" y="-381.85" font-family="Verdana" font-size="7.00" fill="#000000">num.quadratic</text>
<text text-anchor="middle" x="1139" y="-372.85" font-family="Verdana" font-size="7.00" fill="#000000">calls: 45</text>
<text text-anchor="middle" x="1139" y="-363.85" font-family="Verdana" font-size="7.00" fill="#000000">time: 0.000000s</text>
</g>
<!-- corner.balance&#45;&gt;num.quadratic -->
<g id="edge28" class="edge">
<title>corner.balance&#45;&gt;num.quadratic</title>
<path fill="none" stroke="#b2b2b2" d="M188.67,-455.55C195.57,-452.59 202.9,-449.87 210,-448 258.32,-435.26 272.23,-442.54 322,-438 364.9,-434.08 375.48,-431.26 418.5,-429 437.02,-428.03 1068.63,-427.5 1086,-421 1097.36,-416.75 1107.97,-408.9 1116.67,-400.93"/>
<polygon fill="#b2b2b2" stroke="#b2b2b2" points="1118.92,-403.62 1123.6,-394.12 1114.02,-398.63 1118.92,-403.62"/>
<text text-anchor="middle" x="423.25" y="-431.35" font-family="Verdana" font-size="7.00" fill="#000000">45</text>
</g>
<!-- nasa7.Reaction.__call__ -->
<g id="node36" class="node">
<title>nasa7.Reaction.__call__</title>
<polygon fill="#d654e5" stroke="#d654e5" points="433.13,-393 324.88,-393 324.88,-357 433.13,-357 433.13,-393"/>
<text text-anchor="middle" x="379" y="-381.85" font-family="Verdana" font-size="7.00" fill="#000000">nasa7.Reaction.__call__</text>
<text text-anchor="middle" x="379" y="-372.85" font-family="Verdana" font-size="7.00" fill="#000000">calls: 35,541</text>
<text text-anchor="middle" x="379" y="-363.85" font-family="Verdana" font-size="7.00" fill="#000000">time: 89.696863s</text>
</g>
<!-- corner.balance&#45;&gt;nasa7.Reaction.__call__ -->
<g id="edge27" class="edge">
<title>corner.balance&#45;&gt;nasa7.Reaction.__call__</title>
<path fill="none" stroke="#a641b2" d="M191.03,-455.57C197.28,-452.85 203.77,-450.21 210,-448 254.59,-432.15 269.93,-440.62 313,-421 325.18,-415.45 337.55,-407.7 348.24,-400.19"/>
<polygon fill="#a641b2" stroke="#a641b2" points="350.28,-403.03 356.31,-394.31 346.16,-397.37 350.28,-403.03"/>
<text text-anchor="middle" x="305.13" y="-431.35" font-family="Verdana" font-size="7.00" fill="#000000">35541</text>
</g>
<!-- nasa7.Specie.getMMH -->
<g id="node33" class="node">
<title>nasa7.Specie.getMMH</title>
<polygon fill="#e5e5e5" stroke="#e5e5e5" points="425.38,-231 324.63,-231 324.63,-195 425.38,-195 425.38,-231"/>
<text text-anchor="middle" x="375" y="-219.85" font-family="Verdana" font-size="7.00" fill="#000000">nasa7.Specie.getMMH</text>
<text text-anchor="middle" x="375" y="-210.85" font-family="Verdana" font-size="7.00" fill="#000000">calls: 450</text>
<text text-anchor="middle" x="375" y="-201.85" font-family="Verdana" font-size="7.00" fill="#000000">time: 0.238000s</text>
</g>
<!-- corner.&lt;genexpr&gt;&#45;&gt;nasa7.Specie.getMMH -->
<g id="edge30" class="edge">
<title>corner.&lt;genexpr&gt;&#45;&gt;nasa7.Specie.getMMH</title>
<path fill="none" stroke="#b2b2b2" d="M91.64,-356.57C149.58,-327.42 266.11,-268.79 330.21,-236.54"/>
<polygon fill="#b2b2b2" stroke="#b2b2b2" points="331.69,-239.71 339.05,-232.09 328.55,-233.45 331.69,-239.71"/>
<text text-anchor="middle" x="254.88" y="-291.85" font-family="Verdana" font-size="7.00" fill="#000000">450</text>
</g>
<!-- num.&lt;module&gt; -->
<g id="node19" class="node">
<title>num.&lt;module&gt;</title>
<polygon fill="#e5e5e5" stroke="#e5e5e5" points="1278.63,-393 1197.38,-393 1197.38,-357 1278.63,-357 1278.63,-393"/>
<text text-anchor="middle" x="1238" y="-381.85" font-family="Verdana" font-size="7.00" fill="#000000">num.&lt;module&gt;</text>
<text text-anchor="middle" x="1238" y="-372.85" font-family="Verdana" font-size="7.00" fill="#000000">calls: 1</text>
<text text-anchor="middle" x="1238" y="-363.85" font-family="Verdana" font-size="7.00" fill="#000000">time: 0.010000s</text>
</g>
<!-- umf.&lt;module&gt; -->
<g id="node21" class="node">
<title>umf.&lt;module&gt;</title>
<polygon fill="#e5e5e5" stroke="#e5e5e5" points="510.63,-492 429.38,-492 429.38,-456 510.63,-456 510.63,-492"/>
<text text-anchor="middle" x="470" y="-480.85" font-family="Verdana" font-size="7.00" fill="#000000">umf.&lt;module&gt;</text>
<text text-anchor="middle" x="470" y="-471.85" font-family="Verdana" font-size="7.00" fill="#000000">calls: 1</text>
<text text-anchor="middle" x="470" y="-462.85" font-family="Verdana" font-size="7.00" fill="#000000">time: 0.000000s</text>
</g>
<!-- umf.secant&#45;&gt;therm.Mixture.f -->
<g id="edge23" class="edge">
<title>umf.secant&#45;&gt;therm.Mixture.f</title>
<path fill="none" stroke="#7c65b2" d="M384.49,-492.29C394.11,-501.57 406.91,-512.58 420,-520 452.36,-538.34 492.16,-551.39 523.72,-559.83"/>
<polygon fill="#7c65b2" stroke="#7c65b2" points="522.49,-563.13 533.04,-562.24 524.24,-556.35 522.49,-563.13"/>
<text text-anchor="middle" x="457.25" y="-530.35" font-family="Verdana" font-size="7.00" fill="#000000">30</text>
</g>
<!-- nasa7.&lt;module&gt; -->
<g id="node23" class="node">
<title>nasa7.&lt;module&gt;</title>
<polygon fill="#e5e5e5" stroke="#e5e5e5" points="1023.63,-393 942.38,-393 942.38,-357 1023.63,-357 1023.63,-393"/>
<text text-anchor="middle" x="983" y="-381.85" font-family="Verdana" font-size="7.00" fill="#000000">nasa7.&lt;module&gt;</text>
<text text-anchor="middle" x="983" y="-372.85" font-family="Verdana" font-size="7.00" fill="#000000">calls: 1</text>
<text text-anchor="middle" x="983" y="-363.85" font-family="Verdana" font-size="7.00" fill="#000000">time: 0.010000s</text>
</g>
<!-- nasa7.Specie -->
<g id="node24" class="node">
<title>nasa7.Specie</title>
<polygon fill="#e5e5e5" stroke="#e5e5e5" points="1073.63,-312 992.38,-312 992.38,-276 1073.63,-276 1073.63,-312"/>
<text text-anchor="middle" x="1033" y="-300.85" font-family="Verdana" font-size="7.00" fill="#000000">nasa7.Specie</text>
<text text-anchor="middle" x="1033" y="-291.85" font-family="Verdana" font-size="7.00" fill="#000000">calls: 1</text>
<text text-anchor="middle" x="1033" y="-282.85" font-family="Verdana" font-size="7.00" fill="#000000">time: 0.000000s</text>
</g>
<!-- nasa7.&lt;module&gt;&#45;&gt;nasa7.Specie -->
<g id="edge2" class="edge">
<title>nasa7.&lt;module&gt;&#45;&gt;nasa7.Specie</title>
<path fill="none" stroke="#b2b2b2" d="M993.85,-356.86C1000.29,-346.68 1008.6,-333.55 1015.91,-322"/>
<polygon fill="#b2b2b2" stroke="#b2b2b2" points="1018.8,-323.98 1021.19,-313.66 1012.88,-320.24 1018.8,-323.98"/>
<text text-anchor="middle" x="1011.63" y="-332.35" font-family="Verdana" font-size="7.00" fill="#000000">1</text>
</g>
<!-- nasa7.Reaction -->
<g id="node25" class="node">
<title>nasa7.Reaction</title>
<polygon fill="#e5e5e5" stroke="#e5e5e5" points="974.63,-312 893.38,-312 893.38,-276 974.63,-276 974.63,-312"/>
<text text-anchor="middle" x="934" y="-300.85" font-family="Verdana" font-size="7.00" fill="#000000">nasa7.Reaction</text>
<text text-anchor="middle" x="934" y="-291.85" font-family="Verdana" font-size="7.00" fill="#000000">calls: 1</text>
<text text-anchor="middle" x="934" y="-282.85" font-family="Verdana" font-size="7.00" fill="#000000">time: 0.000000s</text>
</g>
<!-- nasa7.&lt;module&gt;&#45;&gt;nasa7.Reaction -->
<g id="edge3" class="edge">
<title>nasa7.&lt;module&gt;&#45;&gt;nasa7.Reaction</title>
<path fill="none" stroke="#b2b2b2" d="M972.37,-356.86C966.05,-346.68 957.91,-333.55 950.75,-322"/>
<polygon fill="#b2b2b2" stroke="#b2b2b2" points="953.82,-320.32 945.58,-313.67 947.88,-324.01 953.82,-320.32"/>
<text text-anchor="middle" x="961.63" y="-332.35" font-family="Verdana" font-size="7.00" fill="#000000">1</text>
</g>
<!-- nasa7.&lt;listcomp&gt; -->
<g id="node27" class="node">
<title>nasa7.&lt;listcomp&gt;</title>
<polygon fill="#e5e5e5" stroke="#e5e5e5" points="651.13,-312 566.88,-312 566.88,-276 651.13,-276 651.13,-312"/>
<text text-anchor="middle" x="609" y="-300.85" font-family="Verdana" font-size="7.00" fill="#000000">nasa7.&lt;listcomp&gt;</text>
<text text-anchor="middle" x="609" y="-291.85" font-family="Verdana" font-size="7.00" fill="#000000">calls: 1,137</text>
<text text-anchor="middle" x="609" y="-282.85" font-family="Verdana" font-size="7.00" fill="#000000">time: 0.060000s</text>
</g>
<!-- nasa7.read&#45;&gt;nasa7.&lt;listcomp&gt; -->
<g id="edge7" class="edge">
<title>nasa7.read&#45;&gt;nasa7.&lt;listcomp&gt;</title>
<path fill="none" stroke="#b2b2b2" d="M519.24,-356.66C535.42,-345.55 556.63,-330.97 574.38,-318.79"/>
<polygon fill="#b2b2b2" stroke="#b2b2b2" points="576.31,-321.7 582.57,-313.15 572.35,-315.93 576.31,-321.7"/>
<text text-anchor="middle" x="564.5" y="-332.35" font-family="Verdana" font-size="7.00" fill="#000000">1137</text>
</g>
<!-- nasa7.Specie.__init__ -->
<g id="node28" class="node">
<title>nasa7.Specie.__init__</title>
<polygon fill="#e5e5e5" stroke="#e5e5e5" points="548.63,-312 449.38,-312 449.38,-276 548.63,-276 548.63,-312"/>
<text text-anchor="middle" x="499" y="-300.85" font-family="Verdana" font-size="7.00" fill="#000000">nasa7.Specie.__init__</text>
<text text-anchor="middle" x="499" y="-291.85" font-family="Verdana" font-size="7.00" fill="#000000">calls: 1,136</text>
<text text-anchor="middle" x="499" y="-282.85" font-family="Verdana" font-size="7.00" fill="#000000">time: 0.020000s</text>
</g>
<!-- nasa7.read&#45;&gt;nasa7.Specie.__init__ -->
<g id="edge8" class="edge">
<title>nasa7.read&#45;&gt;nasa7.Specie.__init__</title>
<path fill="none" stroke="#b2b2b2" d="M495.08,-356.86C495.7,-347.19 496.48,-334.87 497.18,-323.76"/>
<polygon fill="#b2b2b2" stroke="#b2b2b2" points="500.67,-324.09 497.8,-313.89 493.68,-323.65 500.67,-324.09"/>
<text text-anchor="middle" x="506.5" y="-332.35" font-family="Verdana" font-size="7.00" fill="#000000">1136</text>
</g>
<!-- nasa7.&lt;genexpr&gt; -->
<g id="node31" class="node">
<title>nasa7.&lt;genexpr&gt;</title>
<polygon fill="#e5e5e5" stroke="#e5e5e5" points="875,-312 793,-312 793,-276 875,-276 875,-312"/>
<text text-anchor="middle" x="834" y="-300.85" font-family="Verdana" font-size="7.00" fill="#000000">nasa7.&lt;genexpr&gt;</text>
<text text-anchor="middle" x="834" y="-291.85" font-family="Verdana" font-size="7.00" fill="#000000">calls: 28</text>
<text text-anchor="middle" x="834" y="-282.85" font-family="Verdana" font-size="7.00" fill="#000000">time: 0.000000s</text>
</g>
<!-- nasa7.Reaction.__init__&#45;&gt;nasa7.&lt;genexpr&gt; -->
<g id="edge9" class="edge">
<title>nasa7.Reaction.__init__&#45;&gt;nasa7.&lt;genexpr&gt;</title>
<path fill="none" stroke="#b2b2b2" d="M746.58,-356.66C762.33,-345.55 783,-330.97 800.28,-318.79"/>
<polygon fill="#b2b2b2" stroke="#b2b2b2" points="802.09,-321.79 808.24,-313.17 798.05,-316.07 802.09,-321.79"/>
<text text-anchor="middle" x="786.25" y="-332.35" font-family="Verdana" font-size="7.00" fill="#000000">28</text>
</g>
<!-- nasa7.Reaction.__str__ -->
<g id="node32" class="node">
<title>nasa7.Reaction.__str__</title>
<polygon fill="#e5e5e5" stroke="#e5e5e5" points="774.63,-312 669.38,-312 669.38,-276 774.63,-276 774.63,-312"/>
<text text-anchor="middle" x="722" y="-300.85" font-family="Verdana" font-size="7.00" fill="#000000">nasa7.Reaction.__str__</text>
<text text-anchor="middle" x="722" y="-291.85" font-family="Verdana" font-size="7.00" fill="#000000">calls: 9</text>
<text text-anchor="middle" x="722" y="-282.85" font-family="Verdana" font-size="7.00" fill="#000000">time: 0.000000s</text>
</g>
<!-- nasa7.Reaction.__init__&#45;&gt;nasa7.Reaction.__str__ -->
<g id="edge10" class="edge">
<title>nasa7.Reaction.__init__&#45;&gt;nasa7.Reaction.__str__</title>
<path fill="none" stroke="#b2b2b2" d="M722,-356.86C722,-347.19 722,-334.87 722,-323.76"/>
<polygon fill="#b2b2b2" stroke="#b2b2b2" points="725.5,-323.89 722,-313.89 718.5,-323.89 725.5,-323.89"/>
<text text-anchor="middle" x="724.63" y="-332.35" font-family="Verdana" font-size="7.00" fill="#000000">9</text>
</g>
<!-- nasa7.Specie.__call__ -->
<g id="node34" class="node">
<title>nasa7.Specie.__call__</title>
<polygon fill="#b06ee5" stroke="#b06ee5" points="571.38,-150 470.63,-150 470.63,-114 571.38,-114 571.38,-150"/>
<text text-anchor="middle" x="521" y="-138.85" font-family="Verdana" font-size="7.00" fill="#000000">nasa7.Specie.__call__</text>
<text text-anchor="middle" x="521" y="-129.85" font-family="Verdana" font-size="7.00" fill="#000000">calls: 222,124</text>
<text text-anchor="middle" x="521" y="-120.85" font-family="Verdana" font-size="7.00" fill="#000000">time: 35.364640s</text>
</g>
<!-- nasa7.Specie.getMMH&#45;&gt;nasa7.Specie.__call__ -->
<g id="edge31" class="edge">
<title>nasa7.Specie.getMMH&#45;&gt;nasa7.Specie.__call__</title>
<path fill="none" stroke="#8995b2" d="M407.04,-194.66C428.08,-183.28 455.82,-168.27 478.67,-155.9"/>
<polygon fill="#8995b2" stroke="#8995b2" points="480.32,-158.99 487.45,-151.15 476.99,-152.83 480.32,-158.99"/>
<text text-anchor="middle" x="459.88" y="-170.35" font-family="Verdana" font-size="7.00" fill="#000000">900</text>
</g>
<!-- nasa7._R -->
<g id="node35" class="node">
<title>nasa7._R</title>
<polygon fill="#9996e5" stroke="#9996e5" points="699.63,-69 618.38,-69 618.38,-33 699.63,-33 699.63,-69"/>
<text text-anchor="middle" x="659" y="-57.85" font-family="Verdana" font-size="7.00" fill="#000000">nasa7._R</text>
<text text-anchor="middle" x="659" y="-48.85" font-family="Verdana" font-size="7.00" fill="#000000">calls: 257,665</text>
<text text-anchor="middle" x="659" y="-39.85" font-family="Verdana" font-size="7.00" fill="#000000">time: 1.474006s</text>
</g>
<!-- nasa7.Specie.__call__&#45;&gt;nasa7._R -->
<g id="edge32" class="edge">
<title>nasa7.Specie.__call__&#45;&gt;nasa7._R</title>
<path fill="none" stroke="#7d83b2" d="M551.28,-113.66C571.15,-102.29 597.34,-87.3 618.92,-74.94"/>
<polygon fill="#7d83b2" stroke="#7d83b2" points="620.53,-78.05 627.47,-70.05 617.05,-71.98 620.53,-78.05"/>
<text text-anchor="middle" x="609.75" y="-89.35" font-family="Verdana" font-size="7.00" fill="#000000">222124</text>
</g>
<!-- nasa7.Reaction.__call__&#45;&gt;nasa7._R -->
<g id="edge34" class="edge">
<title>nasa7.Reaction.__call__&#45;&gt;nasa7._R</title>
<path fill="none" stroke="#a8b0b2" d="M395.48,-356.52C400.15,-351.12 405.03,-345.01 409,-339 426.18,-312.95 415.44,-295.25 440,-276 469.37,-252.98 485.56,-266.03 522,-258 576.23,-246.05 607.45,-272.81 644,-231 680.45,-189.29 673.54,-119.29 665.89,-80.33"/>
<polygon fill="#a8b0b2" stroke="#a8b0b2" points="669.37,-79.84 663.86,-70.79 662.52,-81.3 669.37,-79.84"/>
<text text-anchor="middle" x="676.13" y="-210.85" font-family="Verdana" font-size="7.00" fill="#000000">35541</text>
</g>
<!-- nasa7.Specie.G -->
<g id="node37" class="node">
<title>nasa7.Specie.G</title>
<polygon fill="#d853e5" stroke="#d853e5" points="411.25,-312 324.75,-312 324.75,-276 411.25,-276 411.25,-312"/>
<text text-anchor="middle" x="368" y="-300.85" font-family="Verdana" font-size="7.00" fill="#000000">nasa7.Specie.G</text>
<text text-anchor="middle" x="368" y="-291.85" font-family="Verdana" font-size="7.00" fill="#000000">calls: 110,612</text>
<text text-anchor="middle" x="368" y="-282.85" font-family="Verdana" font-size="7.00" fill="#000000">time: 75.585816s</text>
</g>
<!-- nasa7.Reaction.__call__&#45;&gt;nasa7.Specie.G -->
<g id="edge33" class="edge">
<title>nasa7.Reaction.__call__&#45;&gt;nasa7.Specie.G</title>
<path fill="none" stroke="#a840b2" d="M376.61,-356.86C375.27,-347.19 373.55,-334.87 372.01,-323.76"/>
<polygon fill="#a840b2" stroke="#a840b2" points="375.47,-323.3 370.63,-313.88 368.54,-324.27 375.47,-323.3"/>
<text text-anchor="middle" x="388.75" y="-332.35" font-family="Verdana" font-size="7.00" fill="#000000">110612</text>
</g>
<!-- nasa7.Specie.H -->
<g id="node38" class="node">
<title>nasa7.Specie.H</title>
<polygon fill="#9b9de5" stroke="#9b9de5" points="635.25,-231 548.75,-231 548.75,-195 635.25,-195 635.25,-231"/>
<text text-anchor="middle" x="592" y="-219.85" font-family="Verdana" font-size="7.00" fill="#000000">nasa7.Specie.H</text>
<text text-anchor="middle" x="592" y="-210.85" font-family="Verdana" font-size="7.00" fill="#000000">calls: 110,612</text>
<text text-anchor="middle" x="592" y="-201.85" font-family="Verdana" font-size="7.00" fill="#000000">time: 27.780118s</text>
</g>
<!-- nasa7.Specie.G&#45;&gt;nasa7.Specie.H -->
<g id="edge35" class="edge">
<title>nasa7.Specie.G&#45;&gt;nasa7.Specie.H</title>
<path fill="none" stroke="#787ab2" d="M411.72,-277.58C447.8,-264.86 499.16,-246.74 537.84,-233.1"/>
<polygon fill="#787ab2" stroke="#787ab2" points="538.7,-236.51 546.96,-229.88 536.37,-229.91 538.7,-236.51"/>
<text text-anchor="middle" x="501.75" y="-251.35" font-family="Verdana" font-size="7.00" fill="#000000">110612</text>
</g>
<!-- nasa7.Specie.S -->
<g id="node39" class="node">
<title>nasa7.Specie.S</title>
<polygon fill="#9b9de5" stroke="#9b9de5" points="530.25,-231 443.75,-231 443.75,-195 530.25,-195 530.25,-231"/>
<text text-anchor="middle" x="487" y="-219.85" font-family="Verdana" font-size="7.00" fill="#000000">nasa7.Specie.S</text>
<text text-anchor="middle" x="487" y="-210.85" font-family="Verdana" font-size="7.00" fill="#000000">calls: 110,612</text>
<text text-anchor="middle" x="487" y="-201.85" font-family="Verdana" font-size="7.00" fill="#000000">time: 27.667603s</text>
</g>
<!-- nasa7.Specie.G&#45;&gt;nasa7.Specie.S -->
<g id="edge36" class="edge">
<title>nasa7.Specie.G&#45;&gt;nasa7.Specie.S</title>
<path fill="none" stroke="#787ab2" d="M394.12,-275.66C410.93,-264.5 433.01,-249.84 451.43,-237.62"/>
<polygon fill="#787ab2" stroke="#787ab2" points="453.29,-240.58 459.68,-232.13 449.42,-234.75 453.29,-240.58"/>
<text text-anchor="middle" x="446.75" y="-251.35" font-family="Verdana" font-size="7.00" fill="#000000">110612</text>
</g>
<!-- nasa7.Specie.H&#45;&gt;nasa7.Specie.__call__ -->
<g id="edge37" class="edge">
<title>nasa7.Specie.H&#45;&gt;nasa7.Specie.__call__</title>
<path fill="none" stroke="#776fb2" d="M576.59,-194.86C567.08,-184.27 554.69,-170.48 544.02,-158.61"/>
<polygon fill="#776fb2" stroke="#776fb2" points="546.92,-156.6 537.63,-151.51 541.71,-161.28 546.92,-156.6"/>
<text text-anchor="middle" x="573.75" y="-170.35" font-family="Verdana" font-size="7.00" fill="#000000">110612</text>
</g>
<!-- nasa7.Specie.S&#45;&gt;nasa7.Specie.__call__ -->
<g id="edge38" class="edge">
<title>nasa7.Specie.S&#45;&gt;nasa7.Specie.__call__</title>
<path fill="none" stroke="#776fb2" d="M494.38,-194.86C498.67,-184.89 504.18,-172.08 509.08,-160.7"/>
<polygon fill="#776fb2" stroke="#776fb2" points="512.18,-162.34 512.92,-151.77 505.75,-159.57 512.18,-162.34"/>
<text text-anchor="middle" x="520.75" y="-170.35" font-family="Verdana" font-size="7.00" fill="#000000">110612</text>
</g>
<!-- periodic.&lt;module&gt; -->
<g id="node40" class="node">
<title>periodic.&lt;module&gt;</title>
<polygon fill="#e5e5e5" stroke="#e5e5e5" points="1158.88,-888 1073.13,-888 1073.13,-852 1158.88,-852 1158.88,-888"/>
<text text-anchor="middle" x="1116" y="-876.85" font-family="Verdana" font-size="7.00" fill="#000000">periodic.&lt;module&gt;</text>
<text text-anchor="middle" x="1116" y="-867.85" font-family="Verdana" font-size="7.00" fill="#000000">calls: 1</text>
<text text-anchor="middle" x="1116" y="-858.85" font-family="Verdana" font-size="7.00" fill="#000000">time: 0.000000s</text>
</g>
<!-- main&#45;&gt;therm.readFile -->
<g id="edge14" class="edge">
<title>main&#45;&gt;therm.readFile</title>
<path fill="none" stroke="#b2b2b2" d="M841.97,-661.47C808.99,-653.36 764.34,-639.68 729,-619 719.78,-613.6 710.82,-606.23 703.14,-599.01"/>
<polygon fill="#b2b2b2" stroke="#b2b2b2" points="706.01,-596.93 696.44,-592.4 701.1,-601.92 706.01,-596.93"/>
<text text-anchor="middle" x="763.63" y="-629.35" font-family="Verdana" font-size="7.00" fill="#000000">1</text>
</g>
<!-- main&#45;&gt;therm.Ingredient.__init__ -->
<g id="edge16" class="edge">
<title>main&#45;&gt;therm.Ingredient.__init__</title>
<path fill="none" stroke="#b2b2b2" d="M934.32,-669.58C1007.77,-666.25 1145.74,-655.21 1176,-619 1194.24,-597.17 1189.49,-580.04 1176,-555 1165.65,-535.79 1155.43,-535.66 1135,-528 1110.22,-518.71 1100.63,-529.66 1076,-520 1063.41,-515.06 1050.94,-507.16 1040.39,-499.35"/>
<polygon fill="#b2b2b2" stroke="#b2b2b2" points="1042.54,-496.59 1032.5,-493.22 1038.25,-502.11 1042.54,-496.59"/>
<text text-anchor="middle" x="1189.63" y="-570.85" font-family="Verdana" font-size="7.00" fill="#000000">5</text>
</g>
<!-- main&#45;&gt;therm.getLine -->
<g id="edge15" class="edge">
<title>main&#45;&gt;therm.getLine</title>
<path fill="none" stroke="#b2b2b2" d="M868.29,-653.72C856.8,-643.62 842.05,-630.62 829,-619 821.6,-612.41 813.62,-605.25 806.25,-598.62"/>
<polygon fill="#b2b2b2" stroke="#b2b2b2" points="808.85,-596.25 799.08,-592.15 804.16,-601.45 808.85,-596.25"/>
<text text-anchor="middle" x="848.63" y="-629.35" font-family="Verdana" font-size="7.00" fill="#000000">5</text>
</g>
<!-- main&#45;&gt;therm.Mixture.__init__ -->
<g id="edge17" class="edge">
<title>main&#45;&gt;therm.Mixture.__init__</title>
<path fill="none" stroke="#b03cb2" d="M888,-653.66C888,-639.45 888,-619.06 888,-602.46"/>
<polygon fill="#b03cb2" stroke="#b03cb2" points="891.5,-602.71 888,-592.71 884.5,-602.71 891.5,-602.71"/>
<text text-anchor="middle" x="890.63" y="-629.35" font-family="Verdana" font-size="7.00" fill="#000000">5</text>
</g>
<!-- main&#45;&gt;therm.Mixture.prettyPrint -->
<g id="edge18" class="edge">
<title>main&#45;&gt;therm.Mixture.prettyPrint</title>
<path fill="none" stroke="#b2b2b2" d="M910.17,-653.66C929.92,-638.21 959.02,-615.45 981.06,-598.21"/>
<polygon fill="#b2b2b2" stroke="#b2b2b2" points="983.11,-601.04 988.83,-592.12 978.8,-595.53 983.11,-601.04"/>
<text text-anchor="middle" x="944.63" y="-629.35" font-family="Verdana" font-size="7.00" fill="#000000">5</text>
</g>
</g>
</svg>
